<?xml version="1.0"?>
<svg xmlns="http://www.w3.org/2000/svg" xmlns:xlink="http://www.w3.org/1999/xlink" data-noselect="" viewBox="0 0 800 600" width="1600" height="1200" preserveAspectRatio="none" version="1.1"><defs/> <g id="background" data-noselect=""><rect fill="#ffffff" width="800" height="600" data-noselect=""/> <!----></g> <g id="shape_NKttCNbuGM" transform="translate(315.99997711182,166.15522842621783) rotate(0,83.5,83.5) scale(1,1)" filter="" style="cursor: move; opacity: 1;"><g><svg xmlns="http://www.w3.org/2000/svg" xmlns:xlink="http://www.w3.org/1999/xlink" shape-rendering="auto" text-rendering="auto" contentscripttype="text/ecmascript" color-rendering="auto" color-interpolation="auto" xml:space="preserve" preserveAspectRatio="none" image-rendering="auto" zoomAndPan="magnify" version="1.1" contentstyletype="text/css" x="0px" enable-background="new 0 0 99.964 87.373" y="0px" viewBox="2.9997897148132324 2.999821424484253 90.96421813964844 78.37288665771484" width="167" height="143.8837417559643" class="style-removed" data-parent="shape_NKttCNbuGM">
 <g fill="#003686" id="layer2">
  <path clip-rule="evenodd" d="M3.598,45.986C1.295,56.906,5.71,68.081,15.661,75.274   c9.507,6.699,22.651,8.33,33.872,2.621c7.289-3.89,11.798-9.846,11.922-16.979c0.281-3.631-0.755-7.489-3.973-10.678   c-1.904-1.716-4.391-3.046-7.168-3.869c-3.941-0.677-8.321,0.029-10.502,3.194c-0.58,1.011-0.721,2.516,0.446,2.993   c2.487,0.705,4.968,0.785,6.872,2.498c1.168,1.105,1.905,2.338,2.2,3.711c0.597,3.988-1.438,7.531-5.37,9.977   c-6.995,4.008-15.61,3.291-22.193-0.962c-7.605-4.981-10.99-12.927-9.99-20.948c1.143-7.649,5.502-14.605,12.349-19.61   c7.43-5.389,16.325-7.682,25.959-8.732c1.897-0.165,3.941,0.673,4.962-0.471c0.582-0.386-0.731-0.613-1.025-0.732   c-3.649-0.558-6.863-1.248-10.658-0.926c-3.504,0.441-6.567,0.747-9.924,1.562C18.124,21.957,6.186,32.681,3.598,45.986   L3.598,45.986z" fill-rule="evenodd"/>
 </g>
 <g fill="#0075C2" id="layer1">
  <path clip-rule="evenodd" d="M18.686,18.68c-7.666,8.115-9.734,19.948-5.001,31.277   c4.611,10.679,14.968,18.933,27.522,19.925c8.242,0.49,15.2-2.24,19.031-8.262c2.137-2.949,3.267-6.778,2.183-11.184   c-0.725-2.457-2.152-4.885-4.089-7.041c-3.012-2.636-7.113-4.318-10.625-2.755c-1.022,0.56-1.932,1.768-1.183,2.784   c1.75,1.9,3.829,3.263,4.555,5.72c0.424,1.553,0.405,2.988-0.06,4.311c-1.574,3.718-5.157,5.67-9.79,5.707   c-8.059-0.23-15.034-5.34-18.426-12.406c-3.888-8.223-2.625-16.761,2.416-23.083c4.969-5.928,12.318-9.586,20.77-10.278   c9.149-0.719,17.935,1.972,26.7,6.102c1.7,0.854,3.01,2.638,4.477,2.19c0.7-0.024-0.304-0.901-0.493-1.159   c-2.821-2.379-5.2-4.649-8.606-6.354c-3.215-1.453-5.991-2.792-9.276-3.85C43.62,5.77,27.836,8.686,18.686,18.68L18.686,18.68z" fill-rule="evenodd"/>
  <path clip-rule="evenodd" d="M56.479,3.007C45.318,2.755,35.15,9.15,29.91,20.253   c-4.833,10.578-4.021,23.798,3.658,33.777c5.161,6.45,11.851,9.782,18.883,8.595c3.619-0.392,7.226-2.119,9.768-5.872   c1.332-2.188,2.185-4.877,2.48-7.756c-0.059-4-1.561-8.176-5.072-9.736c-1.104-0.383-2.604-0.247-2.862,0.992   c-0.235,2.57,0.147,5.026-1.19,7.213c-0.871,1.354-1.95,2.302-3.24,2.845c-3.813,1.321-7.663-0.027-10.798-3.442   c-5.224-6.138-6.108-14.738-3.139-21.991C41.9,16.483,49.081,11.697,57.146,11.2c7.731-0.281,15.373,2.721,21.551,8.526   c6.67,6.313,10.558,14.636,13.366,23.91c0.504,1.834,0.061,4,1.373,4.789c0.483,0.504,0.465-0.832,0.528-1.139   c-0.124-3.692-0.033-6.978-1.051-10.648c-1.076-3.36-1.944-6.316-3.358-9.463C82.771,12.861,70.027,3.101,56.479,3.007   L56.479,3.007z" fill-rule="evenodd"/>
 </g>
 <!--Copyright (c) Logomaker.com.cn  @2015-05-31-->
</svg></g></g>  <!----></svg>
